<svg width="52" height="17" viewBox="0 0 52 17" fill="none" xmlns="http://www.w3.org/2000/svg">
<g clip-path="url(#clip0_10453_21523)">
<path fill-rule="evenodd" clip-rule="evenodd" d="M4.06868 2.85573C4.21471 3.08521 4.83011 5.15045 4.91355 5.55724L3.24467 5.54681L4.06868 2.85573ZM9.55513 0.373271C8.74155 0.613173 8.75198 1.45805 8.75198 2.3655C8.75198 3.8362 8.6894 6.60029 8.75198 7.89367C8.825 9.41653 10.5252 9.57299 10.9528 8.38391C11.1301 7.89368 11.0571 4.98356 11.0571 4.3473C11.0571 3.4607 11.0989 2.45937 11.0571 1.58321C11.005 0.780061 10.4626 0.102078 9.55513 0.373271ZM12.5174 2.75143C11.2344 2.76186 11.2032 4.2117 12.5174 4.30558C12.5174 5.29648 12.5174 6.28738 12.5174 7.28871C12.5174 7.76851 12.4652 8.19616 12.6634 8.59252C13.0807 9.37481 14.2802 9.30179 14.6139 8.62381C14.9269 7.99798 14.6244 5.49466 14.7704 4.30558C15.4692 4.30558 16.1994 4.28472 16.1889 3.51286C16.1681 2.741 15.4901 2.75143 14.76 2.75143C14.76 2.27163 14.7078 1.99 15.2189 1.93785C15.6674 1.89613 16.0116 2.04215 16.2098 1.69795C16.5749 1.06169 16.0638 0.488007 15.1563 0.35241C14.3636 0.237674 13.5813 0.404563 13.0702 0.769631C12.4861 1.19728 12.5174 2.07345 12.5174 2.75143ZM19.3807 4.24299C20.309 4.04481 20.5489 4.90012 20.6011 5.67197C20.6532 6.50642 20.5593 7.50775 19.7353 7.58076C18.7757 7.6642 18.4732 6.95493 18.4315 6.0892C18.3689 5.17131 18.5984 4.40988 19.3807 4.24299ZM20.8722 8.82199C20.3403 8.99931 20.236 9.29136 19.1199 9.20792C18.5045 9.1662 17.9621 8.96802 17.5241 8.69683C16.7313 8.20659 16.0951 7.22612 16.1368 5.85972C16.1785 4.51419 16.8252 3.56501 17.5658 3.07478C17.9934 2.79315 18.5462 2.6054 19.1616 2.55325C20.2881 2.45937 20.4967 2.8453 20.9244 2.93918C21.3833 2.25076 22.4681 2.5011 22.7706 3.2208L22.7289 8.6551C22.416 9.22878 21.738 9.36438 21.2373 9.12448C21.0496 9.02017 21.0496 8.94716 20.8722 8.82199ZM2.70228 7.48689L5.46637 7.47645C5.58111 7.96669 5.77929 8.68639 6.08177 8.91587C6.56158 9.29136 7.26042 9.19749 7.65678 8.81156C8.15745 8.32133 8.04271 7.86238 7.81324 7.1844C7.62549 6.65244 7.44817 6.15178 7.26042 5.61982C6.89535 4.57677 6.53028 3.54415 6.16522 2.52196C5.70627 1.19728 5.72713 0.373271 4.06868 0.383702C3.38027 0.383702 2.84831 0.519298 2.57712 0.967811C2.32678 1.40589 0.730915 6.14135 0.355417 7.16354C0.125945 7.78937 0.0320707 8.33176 0.459722 8.76984C0.970817 9.28093 2.10774 9.41653 2.45195 8.30047C2.54583 8.01884 2.61884 7.76851 2.70228 7.48689Z" fill="#005AAB"/>
<path fill-rule="evenodd" clip-rule="evenodd" d="M0.154785 14.1407L0.165216 15.0481H41.7308C44.036 15.0481 46.3411 15.0586 48.6358 15.0481C49.5537 15.0481 50.5133 14.6309 51.0036 13.9738C51.7024 13.0142 51.7024 12.6283 51.7024 11.2201C51.1913 11.1367 7.69605 11.1993 3.2005 11.1993C1.55247 11.1993 0.154785 12.5031 0.154785 14.1407Z" fill="#ED1C24"/>
<path fill-rule="evenodd" clip-rule="evenodd" d="M47.8536 1.21758C47.9787 1.54093 48.0518 1.42619 48.0413 1.94772C48.0309 2.23977 47.9892 2.5214 47.9266 2.80302C47.8327 3.30368 47.6867 3.81478 47.572 4.32588C47.113 6.32854 46.143 9.57243 49.1991 9.1865C50.2213 9.06133 51.4104 8.46679 50.7533 7.3403C50.3152 7.59063 48.9592 8.5398 48.9592 7.10039C48.9592 6.2138 49.2826 5.34807 49.4077 4.51362C50.3778 4.51362 51.6399 4.72224 51.7024 3.25153C51.014 3.38713 50.4091 3.44971 49.6789 3.41842C49.7728 2.85517 50.2839 1.6348 49.971 1.20715C49.5746 0.664764 48.4168 1.07155 47.8536 1.21758ZM26.544 4.50319C26.6275 3.98167 27.0134 3.02206 26.544 2.67785C26.1059 2.36494 25.0942 2.58398 24.6665 2.82388C24.9273 3.04292 24.8751 3.39756 24.823 3.81478C24.7083 4.7118 24.4266 5.96347 24.1972 6.81877C24.072 7.27771 23.6756 8.34162 23.9051 8.75885C24.2076 9.32209 25.1463 9.16564 25.7513 8.96746C25.6992 8.49808 25.4488 8.46679 25.9391 7.46546C26.1581 7.02738 26.3667 6.61016 26.5857 6.18251C26.8152 5.74443 27.0656 5.34807 27.3159 4.983C27.4515 4.78482 27.5975 4.58664 27.7331 4.43018C27.8165 4.32588 27.8791 4.29458 27.9626 4.20071C28.0877 4.07554 28.0669 4.03382 28.2859 4.01296C28.3589 4.56578 27.7748 6.75619 27.6184 7.40288C27.5036 7.90354 27.222 8.62325 27.6392 8.97789C27.9939 9.2908 28.9222 9.1552 29.2977 8.93616C29.0682 8.34162 29.2455 7.96613 29.5063 7.43417C29.7253 6.98566 29.9235 6.57887 30.1634 6.15122C30.445 5.66098 31.3942 4.02339 31.8323 4.00253C31.9053 4.21114 31.2691 7.00652 31.1752 7.48632C31.05 8.16431 31.0813 8.83186 31.6445 9.07176C32.3121 9.35338 32.8649 8.94659 33.3134 8.76928C33.2404 8.61282 33.3239 8.76928 33.23 8.63368C33.157 8.51894 33.2091 8.63368 33.1361 8.49808C32.8128 7.85139 33.1153 6.71446 33.2613 6.04691C33.3969 5.41065 33.8037 3.79392 33.7307 3.20981C33.5846 2.1459 32.3955 2.36494 31.6028 2.91776C31.2378 3.16809 31.0083 3.43928 30.7475 3.72091C30.4137 4.07554 30.1738 4.4719 29.9861 4.67008C30.0382 4.11727 30.3094 3.52273 30.0695 2.96991C29.8609 2.46924 29.2977 2.35451 28.6719 2.57355C27.9 2.84474 27.4723 3.38713 26.9925 3.93995C26.9091 4.04425 26.8674 4.0964 26.7735 4.22157L26.544 4.50319ZM38.779 4.31545C38.6539 4.48233 37.9759 5.79658 37.5169 6.43284C37.3083 6.71446 36.0045 8.70669 36.1192 6.91264C36.1714 6.08863 36.6512 3.3767 37.8298 3.58531C38.2053 3.65832 38.6747 4.06511 38.779 4.31545ZM38.1845 7.00652C38.028 7.13168 37.7777 7.5802 37.6212 7.77838C37.2144 8.26861 37.2979 8.13301 37.0058 8.45636C36.6616 8.84229 35.9628 9.31166 35.1596 9.1865C33.7098 8.95702 33.9914 6.57887 34.4608 5.41065C35.1701 3.65832 36.7451 1.98944 38.6017 2.57355C38.7164 2.60484 39.0085 2.7613 39.0606 2.7613C39.2275 2.79259 39.3631 2.63613 39.5509 2.58398C39.9994 2.45881 40.8547 2.60484 41.1572 2.81345L40.6669 4.11727C40.354 5.06644 40.1663 6.18251 40.135 7.19427C40.0933 8.22689 40.208 8.15387 40.3853 8.77971C39.9681 9.14477 39.165 9.36381 38.5496 8.97789C38.0072 8.63368 38.1636 7.74708 38.1845 7.00652ZM44.0047 4.55535C44.4741 3.91909 45.3503 2.6257 46.216 2.47967C47.6658 2.23977 46.6749 4.50319 45.9135 4.97257C45.7675 4.78482 45.6319 4.56578 45.2877 4.68051C44.8704 4.82654 44.2029 5.86959 43.9943 6.24509C43.7648 6.67274 43.5666 7.05867 43.3789 7.51761C42.9304 8.58153 43.1494 8.42507 43.2224 8.96746C42.6279 9.17607 41.6474 9.35338 41.2928 8.811C41.0424 8.42507 41.4597 7.26728 41.5848 6.81877C41.7622 6.16165 41.9186 5.48366 42.0646 4.80568C42.242 3.95038 42.388 3.481 42.1168 2.78216C42.6383 2.63613 43.5145 2.31279 44.0047 2.69871C44.5262 3.12637 44.0151 3.97124 44.0047 4.55535Z" fill="#ED1C24"/>
<path fill-rule="evenodd" clip-rule="evenodd" d="M0.154785 16.8109C15.9049 16.8109 31.6445 16.8109 47.3946 16.8109C48.5732 16.8109 49.3868 16.9152 50.2943 16.352C50.7845 16.0495 51.6294 15.1629 51.6294 14.3389C51.4625 14.4536 51.3791 14.6101 51.2226 14.7457C49.7623 16.039 48.4898 15.7678 46.4246 15.7678H0.154785V16.8109Z" fill="#FFD503"/>
</g>
<defs>
<clipPath id="clip0_10453_21523">
<rect width="51.5476" height="16.5115" fill="white" transform="translate(0.154785 0.30957)"/>
</clipPath>
</defs>
</svg>
