<svg width="55" height="31" viewBox="0 0 55 31" fill="none" xmlns="http://www.w3.org/2000/svg">
<path fill-rule="evenodd" clip-rule="evenodd" d="M18.5067 5.50729L18.1478 7.27585C21.687 7.26231 32.8221 3.14685 33.3393 0.691136V0.691136C33.3393 0.691531 33.3733 0.530156 33.4068 0.36878V0.36878C33.4401 0.207274 33.4727 0.0458984 33.4704 0.0458984V0.0458984C28.6467 3.31072 21.359 5.50033 18.5067 5.50729M17.8314 8.55923L17.4972 10.1876C20.9091 10.1805 32.1711 6.05818 32.6884 3.60312V3.60312L32.8312 2.90019C27.843 6.37449 20.8571 8.47447 17.8314 8.55923M17.1043 11.5298L16.7578 13.2367L16.7599 13.2971C20.2098 13.2193 31.4209 9.16557 31.9371 6.71366V6.71366L32.1073 5.87367C28.2412 8.57684 20.2179 11.5466 17.1043 11.5298" fill="url(#paint0_linear_10453_21463)"/>
<g clip-path="url(#clip0_10453_21463)">
<path fill-rule="evenodd" clip-rule="evenodd" d="M0.0593191 16.9829H1.35206V21.5248H1.38172C1.84229 20.7183 2.67419 20.1953 3.83327 20.1953C5.61663 20.1953 6.87866 21.6889 6.86338 23.8866C6.86338 26.4701 5.24478 27.7554 3.63963 27.7554C2.59946 27.7554 1.76729 27.3517 1.23303 26.3958H1.18808L1.12981 27.5911H0C0.0300515 27.0976 0.0593191 26.3649 0.0593191 25.7233V16.9829ZM1.35206 24.6923C1.35206 24.8565 1.38172 25.02 1.41177 25.1703C1.66407 26.0812 2.4215 26.7096 3.3723 26.7096C4.73913 26.7096 5.55627 25.5885 5.55627 23.9299C5.55627 22.4807 4.81308 21.2403 3.41699 21.2403C2.52511 21.2403 1.69334 21.8532 1.42562 22.8548C1.39635 23.0043 1.35206 23.1826 1.35206 23.3923V24.6923Z" fill="#165781"/>
<path fill-rule="evenodd" clip-rule="evenodd" d="M13.3857 25.8574C13.3857 26.4855 13.4154 27.0977 13.5043 27.591H12.3159L12.2116 26.6792H12.1673C11.7655 27.2479 10.9927 27.7552 9.96871 27.7552C8.51226 27.7552 7.77051 26.725 7.77051 25.6792C7.77051 23.9299 9.31476 22.9734 12.0926 22.9895V22.8392C12.0926 22.2419 11.9296 21.1661 10.4592 21.1661C9.78958 21.1661 9.09225 21.3745 8.5866 21.7043L8.28896 20.8375C8.88346 20.4495 9.74646 20.1953 10.6515 20.1953C12.8508 20.1953 13.3857 21.7043 13.3857 23.153V25.8574ZM12.1229 23.8998C10.6958 23.8696 9.0771 24.1246 9.0771 25.5282C9.0771 26.3803 9.64141 26.7846 10.3095 26.7846C11.246 26.7846 11.8399 26.1858 12.0479 25.5738C12.0926 25.4383 12.1229 25.2895 12.1229 25.1555V23.8998Z" fill="#165781"/>
<path fill-rule="evenodd" clip-rule="evenodd" d="M15.3917 22.3155C15.3917 21.5687 15.3759 20.9575 15.332 20.3586H16.4898L16.5648 21.5539H16.5945C16.9514 20.8676 17.7833 20.1943 18.9721 20.1943C19.9661 20.1943 21.5118 20.7924 21.5118 23.2722V27.5901H20.204V23.4217C20.204 22.2558 19.7742 21.2844 18.5405 21.2844C17.6789 21.2844 17.0097 21.8978 16.787 22.6301C16.7277 22.7936 16.6977 23.0181 16.6977 23.2435V27.5901H15.3917" fill="#165781"/>
<path fill-rule="evenodd" clip-rule="evenodd" d="M24.7209 23.676H24.7505C24.9287 23.4219 25.1808 23.1082 25.3897 22.8541L27.4991 20.3589H29.0736L26.2956 23.3328L29.4592 27.5903H27.8705L25.3897 24.1246L24.7209 24.8714V27.5903H23.4277V16.9829H24.7209" fill="#165781"/>
<path fill-rule="evenodd" clip-rule="evenodd" d="M40.2314 20.615C40.1826 20.5569 40.1343 20.4979 40.0827 20.4449C39.9985 20.3565 39.9043 20.274 39.804 20.1959C39.2633 19.7512 38.6094 19.4896 37.9046 19.4896C37.1442 19.4896 36.4438 19.7967 35.8799 20.3079C35.8635 20.3183 35.8492 20.33 35.8328 20.3388C35.8126 20.3498 35.784 20.3639 35.7507 20.3549C35.6581 20.3307 35.5592 20.2313 35.5585 20.0892V17.1323C35.5585 16.9466 35.4069 16.7964 35.2213 16.7964H33.7904C33.6037 16.7964 33.4533 16.9466 33.4533 17.1323V17.2345C33.4533 17.2391 33.4521 17.242 33.4521 17.2456V17.5889L33.4548 27.1218C33.4548 27.311 33.6071 27.4642 33.7945 27.4642H35.0898C35.1723 27.4642 35.2473 27.4334 35.3059 27.3833C35.3084 27.3817 35.311 27.3817 35.3122 27.3804C35.3143 27.3788 35.3147 27.3766 35.3161 27.375C35.344 27.3508 35.3656 27.3214 35.3838 27.2897H35.3846C35.4069 27.2478 35.4218 27.2035 35.4268 27.1542C35.4527 26.9436 35.5952 26.8273 35.6837 26.8574C35.7141 26.867 35.743 26.8817 35.7726 26.9031C35.803 26.9222 35.8328 26.942 35.862 26.9612C35.9498 27.026 36.3358 27.292 36.635 27.4259C36.7858 27.493 37.2662 27.6571 37.8237 27.6571C38.3818 27.6571 38.7782 27.5328 38.8716 27.5076C38.9656 27.4826 39.0578 27.4511 39.1465 27.4097C39.5833 27.2213 39.9345 26.9612 40.2013 26.6328C40.4653 26.3102 40.6842 25.928 40.861 25.489C41.1247 24.9115 41.2747 24.2487 41.2747 23.5433C41.2747 22.3906 40.8736 21.353 40.2314 20.615M37.2774 26.1349C36.2289 26.1349 35.3787 24.9985 35.3787 23.5985C35.3787 22.1977 36.2289 21.0621 37.2774 21.0621C38.3249 21.0621 39.1744 22.1977 39.1744 23.5985C39.1744 24.9985 38.3249 26.1349 37.2774 26.1349" fill="#165781"/>
<g clip-path="url(#clip1_10453_21463)">
<path fill-rule="evenodd" clip-rule="evenodd" d="M44.9988 20.3383C44.9973 20.3193 44.9956 20.3001 44.994 20.2817V20.029C44.994 19.8391 44.8414 19.6851 44.6528 19.6851H43.2114C43.0221 19.6851 42.8691 19.8391 42.8691 20.029V27.8416C42.8618 28.0404 42.6212 28.313 42.3429 28.3807C42.2148 28.4205 42.0867 28.4389 41.9571 28.433C41.8281 28.4286 41.7397 28.4808 41.6894 28.5905C41.6699 28.6391 41.6557 28.7047 41.6443 28.7849C41.6357 28.8645 41.6466 29.7019 41.6528 29.7711C41.658 29.8412 41.6699 29.9001 41.6894 29.9501C41.7491 30.0399 41.8535 30.0995 42.0014 30.1298C42.0509 30.1504 43.0086 30.1526 43.6521 29.9957C43.9052 29.9346 44.1081 29.8116 44.2775 29.6827C44.4446 29.5523 44.5938 29.3882 44.7235 29.1879C44.8725 28.9492 44.9538 28.648 44.969 28.2842C44.9736 28.1745 44.994 27.888 44.994 27.8541V20.7559C44.9956 20.7177 44.9966 20.6795 44.9988 20.6381C45.0035 20.5386 45.0035 20.4386 44.9988 20.3383" fill="#165781"/>
</g>
<mask id="mask0_10453_21463" style="mask-type:luminance" maskUnits="userSpaceOnUse" x="46" y="16" width="9" height="12">
<path fill-rule="evenodd" clip-rule="evenodd" d="M54.5091 27.6571V16.7964L46.687 16.7964V27.6571H54.5091V27.6571Z" fill="white"/>
</mask>
<g mask="url(#mask0_10453_21463)">
<path fill-rule="evenodd" clip-rule="evenodd" d="M53.4657 20.615C53.4178 20.5569 53.3696 20.4979 53.317 20.4449C53.2329 20.3565 53.1384 20.274 53.0389 20.1959C52.4982 19.7512 51.8442 19.4896 51.1389 19.4896C50.379 19.4896 49.6792 19.7967 49.1154 20.3079C49.0982 20.3183 49.0839 20.33 49.0668 20.3388C49.0471 20.3498 49.0195 20.3639 48.986 20.3549C48.8933 20.3307 48.794 20.2313 48.7924 20.0892V17.1323C48.7924 16.9466 48.6417 16.7964 48.4561 16.7964H47.0257C46.8388 16.7964 46.6881 16.9466 46.6881 17.1323V17.2345C46.6881 17.2391 46.687 17.242 46.687 17.2456V17.5889L46.6888 27.1218C46.6888 27.311 46.8415 27.4642 47.0296 27.4642H48.3236C48.407 27.4642 48.4824 27.4334 48.5413 27.3833C48.5432 27.3817 48.5447 27.3817 48.5465 27.3804C48.5486 27.3788 48.5494 27.3766 48.5514 27.375C48.5776 27.3508 48.6008 27.3214 48.6189 27.2897L48.6197 27.2881C48.6417 27.2478 48.6567 27.2035 48.6614 27.1542C48.6875 26.9436 48.8292 26.8273 48.9181 26.8574C48.9486 26.867 48.9785 26.8817 49.0079 26.9031C49.037 26.9222 49.0668 26.942 49.0971 26.9612C49.1843 27.026 49.5709 27.292 49.8696 27.4259C50.0205 27.493 50.5002 27.6571 51.0589 27.6571C51.6161 27.6571 52.0119 27.5328 52.1063 27.5076C52.2004 27.4826 52.2923 27.4511 52.3813 27.4097C52.8166 27.2213 53.1691 26.9612 53.4365 26.6328C53.7004 26.3102 53.9191 25.928 54.0959 25.489C54.359 24.9115 54.5092 24.2487 54.5092 23.5433C54.5092 22.3906 54.1075 21.353 53.4657 20.615M50.5122 26.1349C49.4636 26.1349 48.6138 24.9985 48.6138 23.5985C48.6138 22.1977 49.4636 21.0621 50.5122 21.0621C51.5601 21.0621 52.4095 22.1977 52.4095 23.5985C52.4095 24.9985 51.5601 26.1349 50.5122 26.1349" fill="#165781"/>
</g>
<path fill-rule="evenodd" clip-rule="evenodd" d="M43.9061 16.8828C43.7011 16.8857 43.5206 16.9322 43.3653 17.0234C43.2134 17.117 43.0951 17.2422 43.0113 17.3953C42.9241 17.5516 42.8809 17.7232 42.8809 17.9139C42.8809 18.098 42.9241 18.2645 43.0051 18.4177C43.0856 18.5702 43.201 18.6924 43.3467 18.7858C43.496 18.8765 43.6699 18.9235 43.8692 18.9265C44.0929 18.9235 44.2824 18.8765 44.4377 18.7858C44.593 18.6924 44.7107 18.5702 44.7917 18.4177C44.8726 18.2645 44.9126 18.098 44.9126 17.9139C44.9126 17.7232 44.8697 17.5516 44.7885 17.3953C44.708 17.2422 44.59 17.117 44.4403 17.0234C44.2916 16.9322 44.1114 16.8857 43.9061 16.8828" fill="#165781"/>
</g>
<defs>
<linearGradient id="paint0_linear_10453_21463" x1="16.1176" y1="8.32811" x2="36.2897" y2="7.20111" gradientUnits="userSpaceOnUse">
<stop stop-color="#2BA7DF"/>
<stop offset="0.40625" stop-color="#175882"/>
<stop offset="1" stop-color="#EBC71B"/>
</linearGradient>
<clipPath id="clip0_10453_21463">
<rect width="55" height="14" fill="white" transform="translate(0 16.7354)"/>
</clipPath>
<clipPath id="clip1_10453_21463">
<rect width="4" height="11" fill="white" transform="translate(41.5493 19.6265)"/>
</clipPath>
</defs>
</svg>
