<svg width="39" height="36" viewBox="0 0 39 36" fill="none" xmlns="http://www.w3.org/2000/svg">
<path d="M1.27073 34.4641C0.545117 34.0883 -0.0259634 33.7528 0.000910976 33.7259C0.0949714 33.632 3.56849 32.8938 5.9939 32.4508C11.2411 31.4912 17.4827 30.7194 23.6974 30.2698C26.2572 30.0819 35.5222 30.0752 37.1279 30.2631L38.1827 30.3839L36.9935 30.404C34.8839 30.4376 30.0532 30.7731 26.2639 31.1556C19.0952 31.867 11.1269 33.1958 5.36236 34.6252C4.1866 34.9205 3.07803 35.1554 2.90335 35.1554C2.73538 35.1554 1.99634 34.8467 1.27073 34.4641ZM11.2882 27.2633C11.1807 26.968 11.6308 26.8337 11.8257 26.7465C12.7125 26.3707 13.3306 25.7533 13.5389 25.0486C13.6397 24.7131 13.942 22.8072 14.2108 20.8207C14.4795 18.8342 14.7214 17.2907 14.7482 17.2035C14.7684 17.1364 14.8221 16.9015 15.1043 16.8746C15.8367 16.8679 16.3741 16.8746 17.1199 16.8746C17.5297 16.8344 17.4491 17.284 17.4222 17.5726C17.3887 17.935 17.2946 18.6396 17.1737 19.5054C17.0326 20.5523 16.8243 22.1226 16.7101 22.9884C16.4481 24.9345 16.307 25.5385 15.8568 26.5385C15.3328 27.733 14.5198 28.431 13.035 28.9209C12.7327 29.0148 11.8794 29.3034 11.7853 29.0484C11.5972 28.431 11.4561 27.8941 11.2882 27.2633ZM28.2862 26.6056C27.2986 26.2096 27.3456 24.6728 28.3803 24.042C29.032 23.646 29.9524 23.7131 30.4295 24.1829C31.5918 25.3506 29.8785 27.2498 28.2862 26.6056ZM20.8286 25.6929C17.9261 25.1963 17.9463 21.7468 18.598 19.7738C19.411 17.4921 21.3929 16.8277 23.0256 16.7673C24.4029 16.7203 26.3042 16.9753 26.788 17.2706C26.9224 17.3511 26.8552 18.143 26.4856 21.0824C26.2303 23.1226 25.9482 24.8741 25.8608 24.9748C25.4039 25.5251 22.3268 25.9613 20.8286 25.6929ZM23.3615 22.9548C23.6705 21.8005 23.8049 20.7536 24.0266 19.5322C23.9998 19.1094 23.2876 19.1094 23.1062 19.1094C22.1656 19.1094 21.6079 19.6396 21.3123 20.814C20.9092 22.4246 21.3325 23.3172 22.4948 23.3172C22.8643 23.2836 23.2473 23.3038 23.3615 22.9548ZM2.17102 24.7601C2.96381 22.8273 6.14843 15.9015 6.91435 14.4654C7.05544 14.1097 7.4384 14.0359 7.70043 14.009C8.44619 13.9755 9.0979 13.9822 9.75632 13.9889C10.4349 13.9956 10.4416 14.2305 10.529 14.7338C10.6365 15.2372 11.96 23.1159 12.2556 25.0084C12.296 25.3238 12.3699 25.4177 11.96 25.4177C11.3957 25.4177 10.0251 25.4916 9.56148 25.458C9.41367 25.4379 9.31961 25.3439 9.29274 25.2298C9.25243 25.0285 9.2054 24.6795 9.1718 24.3171L9.08446 23.3776H7.38465H5.68485L5.31533 24.2836C5.18095 24.6057 5.03986 24.9211 4.93236 25.1359C4.85846 25.3305 4.74424 25.4177 4.57628 25.458C4.15973 25.4513 2.68163 25.5117 2.13071 25.458C1.84853 25.3372 2.09712 24.9345 2.17102 24.7601ZM8.78213 20.7603C8.73509 20.2503 8.40588 17.6263 8.33198 17.237C8.31182 17.1968 8.3051 17.2102 8.28495 17.2303C8.08339 17.5323 6.99498 20.1966 6.81357 20.814C6.79342 20.9012 6.84717 20.9281 6.92779 20.9214C7.20325 20.9012 8.33198 20.8811 8.67463 20.8677C8.76869 20.8677 8.77541 20.8341 8.78213 20.7603ZM28.4139 22.0354C28.4609 21.6931 28.555 20.7603 28.6289 19.9617C28.7028 19.1631 28.8237 17.9216 28.8909 17.2035C28.9447 16.6532 28.9917 16.123 29.0118 15.8411C29.0521 15.5928 29.3545 15.5593 29.556 15.5593C30.2212 15.566 30.8527 15.5257 31.4507 15.5794C31.7329 15.6063 31.8538 15.6734 31.8538 15.8411C31.5851 17.2236 30.6109 22.0018 30.537 22.2971C30.4698 22.5521 30.4496 22.626 30.0532 22.6528C29.5762 22.6461 29.1798 22.6729 28.6961 22.6662C28.4206 22.6662 28.3467 22.5857 28.4139 22.0354ZM14.97 14.9419C14.97 14.0963 15.5142 13.452 16.1927 13.1836C16.784 12.9756 17.4424 12.9756 17.7918 13.3782C18.4166 14.103 18.0068 15.17 17.2812 15.7271C16.3473 16.3646 14.9901 15.9888 14.97 14.9419ZM31.6724 13.1635C31.4708 12.7138 30.8124 11.2844 30.2212 9.99587C29.6232 8.70736 29.1731 7.5665 29.2067 7.46583C29.247 7.36517 29.9054 6.54642 30.6781 5.64044L31.9344 4.16402C32.0151 4.06336 32.1091 3.94256 32.2233 3.94256C32.9825 3.94927 33.7619 3.98954 34.4875 3.98283C35.025 3.97612 35.2937 3.94256 34.8973 4.34522C34.642 4.66064 34.1381 5.23778 33.5603 5.87532C32.7272 6.79473 32.0486 7.5665 32.0486 7.60005C32.0486 7.62689 32.6735 9.00265 33.4394 10.6468C34.0374 11.9421 34.5345 13.0964 34.7025 13.5795C34.7764 13.7406 34.7092 13.8815 34.5614 13.9218C34.3598 13.9688 33.997 13.9889 33.3722 13.9889H32.4383C32.2099 14.0158 32.0419 13.9755 31.9546 13.7742L31.6724 13.1635ZM3.65583 12.1971C2.81601 11.781 2.41289 11.2441 2.33898 10.4455C2.29867 9.96903 3.07803 3.51977 3.4274 1.47292C3.51474 0.989724 3.54833 0.962881 4.01192 0.962881H4.91893C5.39595 0.962881 5.83266 0.95617 6.1014 0.969592C6.47764 0.976303 6.40374 1.21119 6.37686 1.49305C6.30968 2.12388 6.11484 3.48621 5.85953 5.23778C5.4161 8.35168 5.30189 9.44557 5.40939 9.61335C5.53704 9.80797 5.85281 9.84152 7.94902 9.87508L9.82351 9.90192C10.2737 9.87508 10.361 9.98916 10.3207 10.3851C10.2132 11.0495 10.1527 11.5797 10.0452 12.1702C9.97132 12.5393 9.72945 12.4454 9.35992 12.4655L7.16294 12.4991C4.35457 12.5393 4.34113 12.5393 3.65583 12.1971ZM25.3099 12.4387C25.283 12.385 25.3569 11.6266 25.4846 10.7609C25.6122 9.89521 25.8675 8.02955 26.0624 6.62025C26.6133 2.61378 26.788 1.41252 26.8686 0.949458C26.9492 0.412579 26.9492 0.439424 27.48 0.439424H28.3198C28.649 0.439424 28.9043 0.432713 29.0992 0.439424C29.8517 0.466268 29.7576 0.399158 29.5628 1.56016C29.4889 2.00308 29.2537 3.93585 29.032 5.55991C28.4743 9.66032 28.1115 12.1702 28.0444 12.3649C27.9772 12.5528 25.3972 12.6199 25.3099 12.4387ZM10.9925 12.1233C11.3419 9.19727 11.6778 6.98264 12.0608 4.25798C12.0877 3.92914 12.4102 3.89558 12.7864 3.89558C13.2164 3.89558 13.6464 3.88887 14.0562 3.90229C14.8423 3.90229 15.0506 4.00967 14.97 4.53313C14.6206 7.09001 14.1906 9.37175 13.7405 11.9756C13.6531 12.4185 13.5523 12.4051 13.1291 12.4051C12.6386 12.4051 11.7652 12.4253 11.3218 12.4118C11.0597 12.3649 11.006 12.338 10.9925 12.1233ZM16.5488 5.57333C16.7638 4.43917 16.9116 4.26469 17.2274 4.05665C17.6171 3.80163 20.4725 3.5399 21.4601 3.66741C21.5945 3.68754 21.7289 3.71439 21.8565 3.74123C24.7455 4.42575 24.2954 7.70071 24.1073 9.20398C23.9124 10.6401 23.7176 11.9488 23.6773 12.1098C23.6101 12.3917 23.5496 12.4051 22.2395 12.4051C21.8028 12.4051 21.5676 12.3917 21.319 12.3649C20.9159 12.338 20.8756 12.2508 20.9159 11.9555C21.0637 10.7542 21.2653 9.72072 21.4131 8.59999C21.6147 7.06988 21.5609 5.55991 19.6595 5.88204C19.3303 5.96257 19.243 5.98941 19.2027 6.31825C18.9675 7.82822 18.7592 9.39189 18.5375 10.8683C18.4905 11.224 18.4233 11.5931 18.3561 11.9152C18.336 11.9957 18.3293 12.0696 18.3158 12.13C18.2957 12.1971 18.2486 12.2642 18.2083 12.1971C17.906 11.6401 16.4682 11.734 15.8635 12.1434C15.5612 12.3514 15.5007 12.4655 15.6217 11.828C15.6418 11.6938 15.662 11.5595 15.6821 11.4253C15.9777 9.46571 16.1793 7.54636 16.5488 5.57333ZM12.4438 2.21784C12.1213 1.12394 13.082 0.0434753 14.1503 0.00320932C15.6015 -0.0907446 16.0046 1.90242 14.5198 2.80169C13.6598 3.19764 12.7528 3.11711 12.4438 2.21784Z" fill="#EA232A"/>
</svg>
