<svg width="60" height="19" viewBox="0 0 60 19" fill="none" xmlns="http://www.w3.org/2000/svg">
<g clip-path="url(#clip0_10453_21480)">
<path fill-rule="evenodd" clip-rule="evenodd" d="M0.0631579 12.4813C0.0631579 11.5846 0.0473684 10.8321 0 10.1612H1.64337L1.72042 11.3139H1.76653C2.139 10.7048 2.82016 9.98438 4.09074 9.98438C5.08247 9.98438 5.85711 10.5619 6.18189 11.4258H6.21379C6.47763 10.9938 6.78647 10.6739 7.14253 10.449C7.56126 10.1453 8.04174 9.98438 8.66147 9.98438C9.9161 9.98438 11.1857 10.8644 11.1857 13.3614V17.9539H9.32684V13.6499C9.32684 12.3538 8.89374 11.5846 7.98016 11.5846C7.32837 11.5846 6.84758 12.0656 6.64753 12.626C6.60047 12.8175 6.55405 13.0577 6.55405 13.2801V17.9539H4.69453V13.4411C4.69453 12.3538 4.27689 11.5846 3.39363 11.5846C2.68089 11.5846 2.20121 12.1617 2.03037 12.7046C1.95237 12.8979 1.92111 13.1213 1.92111 13.3449V17.9539H0.0631579V12.4813Z" fill="#003D79"/>
<path fill-rule="evenodd" clip-rule="evenodd" d="M18.4286 16.0817C18.4286 16.7855 18.4596 17.4724 18.5371 17.9539H16.8168L16.6934 17.09H16.6463C16.1818 17.6986 15.3917 18.13 14.4157 18.13C12.8971 18.13 12.0454 16.9947 12.0454 15.8099C12.0454 13.8409 13.7335 12.8496 16.5224 12.8654V12.7369C16.5224 12.2246 16.3207 11.377 14.9886 11.377C14.2446 11.377 13.4696 11.6173 12.9587 11.9527L12.5864 10.6736C13.1451 10.3208 14.122 9.98438 15.314 9.98438C17.7318 9.98438 18.4286 11.5696 18.4286 13.2651V16.0817ZM16.5688 14.1457C15.2211 14.1134 13.9356 14.4174 13.9356 15.6018C13.9356 16.3691 14.4157 16.7219 15.0201 16.7219C15.7784 16.7219 16.337 16.2096 16.5069 15.6497C16.553 15.5057 16.5688 15.3451 16.5688 15.2175V14.1457Z" fill="#003D79"/>
<path fill-rule="evenodd" clip-rule="evenodd" d="M19.7458 12.4813C19.7458 11.5846 19.7288 10.8321 19.6836 10.1612H21.3554L21.4489 11.3292H21.4946C21.8204 10.7219 22.6414 9.98438 23.8961 9.98438C25.2134 9.98438 26.5766 10.8644 26.5766 13.3294V17.9539H24.6713V13.554C24.6713 12.433 24.2685 11.5846 23.2304 11.5846C22.4712 11.5846 21.9446 12.1449 21.7427 12.7372C21.6818 12.9137 21.6656 13.1542 21.6656 13.3767V17.9539H19.7458V12.4813Z" fill="#003D79"/>
<path fill-rule="evenodd" clip-rule="evenodd" d="M34.8385 7.0293V15.7604C34.8385 16.5604 34.869 17.4261 34.9001 17.9535H33.1958L33.1195 16.7215H33.0879C32.6384 17.5861 31.7229 18.1297 30.6241 18.1297C28.8278 18.1297 27.402 16.5457 27.402 14.1453C27.3862 11.5367 28.9664 9.98404 30.7789 9.98404C31.8166 9.98404 32.5609 10.4327 32.9011 11.0092H32.9326V7.0293H34.8385ZM32.9326 13.408C32.9326 13.2496 32.9166 13.0567 32.8868 12.8972C32.7161 12.129 32.1115 11.5045 31.2439 11.5045C30.02 11.5045 29.3382 12.6253 29.3382 14.0816C29.3382 15.5054 30.02 16.5457 31.2284 16.5457C32.0027 16.5457 32.6848 16.0018 32.8705 15.1539C32.9166 14.9771 32.9326 14.7853 32.9326 14.5766V13.408Z" fill="#003D79"/>
<path fill-rule="evenodd" clip-rule="evenodd" d="M36.1851 17.9534H38.1081V10.1611H36.1851V17.9534Z" fill="#003D79"/>
<path fill-rule="evenodd" clip-rule="evenodd" d="M39.4545 12.6733C39.4545 11.6176 39.4384 10.8645 39.3921 10.1611H41.0501L41.1108 11.6488H41.175C41.5462 10.5446 42.4295 10.1611 43.2348 10.1611C43.4203 10.1611 43.5286 10.1283 43.684 10.1611V11.8898C43.5286 11.8579 43.3586 11.8259 43.1261 11.8259C42.2122 11.8259 41.592 12.4334 41.4218 13.313C41.3917 13.4891 41.3604 13.698 41.3604 13.9231V17.9543H39.4545V12.6733Z" fill="#003D79"/>
<path fill-rule="evenodd" clip-rule="evenodd" d="M44.5674 17.9534H46.4875V10.1611H44.5674V17.9534Z" fill="#003D79"/>
</g>
<path fill-rule="evenodd" clip-rule="evenodd" d="M44.1127 0.739647C42.9593 1.42953 40.2388 3.04121 39.2232 3.64139V3.64139C38.6042 3.96708 37.1707 4.1093 36.3599 2.98005V2.98005C36.3454 2.95966 35.2815 1.58659 35.2381 1.53489V1.53489C35.2076 1.49835 34.5198 0.444613 32.9873 0.411669V0.411669C32.7609 0.406124 31.6351 0.399926 30.5366 1.04479V1.04479C29.0766 1.90641 25.6809 3.91163 25.6809 3.91163V3.91163C25.6799 3.91163 25.6799 3.91342 25.6782 3.91342V3.91342C24.2824 4.73834 23.1948 5.3806 23.1948 5.3806V5.3806L24.4798 7.01071C25.0809 7.78165 26.4364 8.37807 27.6119 7.68102V7.68102C27.6119 7.68102 31.9555 5.08296 31.9714 5.07546V5.07546C33.8499 4.01128 35.2994 4.01128 36.2614 4.40727V4.40727C37.1249 4.78417 37.8762 5.72326 37.8762 5.72326V5.72326C37.8762 5.72326 38.858 6.98005 39.0312 7.1999V7.1999C39.5898 7.91016 40.5145 7.63111 40.5145 7.63111V7.63111C40.5145 7.63111 40.8571 7.59099 41.3736 7.27427V7.27427C41.3736 7.27427 45.5808 4.75449 45.5835 4.75367V4.75367C46.9195 3.94408 48.1447 3.7929 48.7709 3.85243V3.85243C50.7323 4.03656 51.3416 5.45187 52.192 6.43923V6.43923C52.6929 7.02001 53.1448 7.34978 53.8359 7.33314V7.33314C54.29 7.32319 54.803 7.03876 54.8786 6.98739V6.98739L59.9167 3.98421C59.9167 3.98421 59.3998 3.18 58.3411 1.92875V1.92875C57.3936 0.812386 56.3871 1.31748 55.5847 1.72799V1.72799C55.2476 1.90021 54.0261 2.73948 52.816 3.32499V3.32499C51.9538 3.74201 50.7152 3.6166 50.0365 2.75025V2.75025C49.9959 2.69757 48.8977 1.32433 48.7823 1.15537V1.15537C48.3391 0.581937 47.4743 0.0683594 46.366 0.0683594V0.0683594C45.6921 0.0683594 44.9275 0.258199 44.1127 0.739647" fill="url(#paint0_linear_10453_21480)"/>
<defs>
<linearGradient id="paint0_linear_10453_21480" x1="23.1948" y1="7.98971" x2="59.9167" y2="7.98971" gradientUnits="userSpaceOnUse">
<stop stop-color="#FFCA06"/>
<stop offset="0.330844" stop-color="#FBAA18"/>
<stop offset="0.694742" stop-color="#FFC907"/>
<stop offset="1" stop-color="#FAA619"/>
</linearGradient>
<clipPath id="clip0_10453_21480">
<rect width="47" height="12" fill="white" transform="translate(0 6.86719)"/>
</clipPath>
</defs>
</svg>
